<svg width="24" height="24" viewBox="0 0 24 24" fill="none" xmlns="http://www.w3.org/2000/svg">
<path d="M12.0005 0C5.3737 0 0.000488281 5.37321 0.000488281 12C0.000488281 18.6268 5.3737 24 12.0005 24C18.6273 24 24.0005 18.6268 24.0005 12C24.0005 5.37321 18.6273 0 12.0005 0ZM17.7675 9.04554C17.7755 9.17143 17.7755 9.30268 17.7755 9.43125C17.7755 13.3634 14.7808 17.8929 9.30852 17.8929C7.62102 17.8929 6.05674 17.4027 4.73888 16.5589C4.97995 16.5857 5.21031 16.5964 5.45674 16.5964C6.8496 16.5964 8.12995 16.125 9.15049 15.3268C7.84335 15.3 6.74513 14.4429 6.37013 13.2643C6.82817 13.3313 7.24067 13.3313 7.7121 13.2107C7.03904 13.074 6.43408 12.7084 6 12.1762C5.56591 11.644 5.32947 10.9779 5.33085 10.2911V10.2536C5.7246 10.4759 6.18799 10.6125 6.67281 10.6313C6.26524 10.3596 5.931 9.99164 5.69971 9.5599C5.46843 9.12817 5.34725 8.64603 5.34692 8.15625C5.34692 7.60179 5.49156 7.09554 5.75138 6.65625C6.49844 7.5759 7.43066 8.32806 8.48745 8.86384C9.54423 9.39961 10.7019 9.70702 11.8853 9.76607C11.4648 7.74375 12.9755 6.10714 14.7916 6.10714C15.6487 6.10714 16.4201 6.46607 16.9639 7.04464C17.6362 6.91875 18.2791 6.66696 18.8523 6.32946C18.63 7.01786 18.1639 7.59911 17.5451 7.96607C18.1451 7.90179 18.7237 7.73571 19.2594 7.50268C18.855 8.09732 18.3487 8.625 17.7675 9.04554Z" fill="#483D3F"/>
</svg>
