<svg width="24" height="24" viewBox="0 0 24 24" fill="none" xmlns="http://www.w3.org/2000/svg">
<path d="M23.0405 0H0.960488C0.429488 0 0.000488281 0.429 0.000488281 0.96V23.04C0.000488281 23.571 0.429488 24 0.960488 24H23.0405C23.5715 24 24.0005 23.571 24.0005 23.04V0.96C24.0005 0.429 23.5715 0 23.0405 0ZM20.2685 7.005H18.3515C16.8485 7.005 16.5575 7.719 16.5575 8.769V11.082H20.1455L19.6775 14.703H16.5575V24H12.8165V14.706H9.68749V11.082H12.8165V8.412C12.8165 5.313 14.7095 3.624 17.4755 3.624C18.8015 3.624 19.9385 3.723 20.2715 3.768V7.005H20.2685Z" fill="#483D3F"/>
</svg>
